HIERARCHY
ROOT reference
{
  OFFSET 0 0 0
  CHANNELS 6 Xposition Yposition Zposition Zrotation Xrotation Yrotation
  JOINT Hips
  {
    OFFSET -16.5314 84.0534 123.771
    CHANNELS 6 Xposition Yposition Zposition Zrotation Xrotation Yrotation
    JOINT Spine
    {
      OFFSET 0 7.59534 0
      CHANNELS 6 Xposition Yposition Zposition Zrotation Xrotation Yrotation
      JOINT Spine1
      {
        OFFSET 0 23.5015 0
        CHANNELS 6 Xposition Yposition Zposition Zrotation Xrotation Yrotation
        JOINT Neck
        {
          OFFSET 0 23.405 2.12773
          CHANNELS 6 Xposition Yposition Zposition Zrotation Xrotation Yrotation
          JOINT Head
          {
            OFFSET 0 12.9677 -1.85252
            CHANNELS 6 Xposition Yposition Zposition Zrotation Xrotation Yrotation
            End Site
            {
              OFFSET 0 23.1565 0
            }
          }
        }
        JOINT LeftShoulder
        {
          OFFSET 3.62206 22.4732 -0.132728
          CHANNELS 6 Xposition Yposition Zposition Zrotation Xrotation Yrotation
          JOINT LeftArm
          {
            OFFSET 8.17784 0 0
            CHANNELS 6 Xposition Yposition Zposition Zrotation Xrotation Yrotation
            JOINT LeftForeArm
            {
              OFFSET 30.104 0 0
              CHANNELS 6 Xposition Yposition Zposition Zrotation Xrotation Yrotation
              JOINT LeftHand
              {
                OFFSET 24.4664 0 0
                CHANNELS 6 Xposition Yposition Zposition Zrotation Xrotation Yrotation
                End Site
                {
                  OFFSET 13.8939 0 0
                }
              }
            }
          }
        }
        JOINT RightShoulder
        {
          OFFSET -3.6336 22.4732 -0.132728
          CHANNELS 6 Xposition Yposition Zposition Zrotation Xrotation Yrotation
          JOINT RightArm
          {
            OFFSET -8.17784 0 0
            CHANNELS 6 Xposition Yposition Zposition Zrotation Xrotation Yrotation
            JOINT RightForeArm
            {
              OFFSET -30.104 0 0
              CHANNELS 6 Xposition Yposition Zposition Zrotation Xrotation Yrotation
              JOINT RightHand
              {
                OFFSET -24.4664 0 0
                CHANNELS 6 Xposition Yposition Zposition Zrotation Xrotation Yrotation
                End Site
                {
                  OFFSET -13.8939 0 0
                }
              }
            }
          }
        }
      }
    }
    JOINT LeftUpLeg
    {
      OFFSET 9.26261 0 0
      CHANNELS 6 Xposition Yposition Zposition Zrotation Xrotation Yrotation
      JOINT LeftLeg
      {
        OFFSET 0 -35.4897 0
        CHANNELS 6 Xposition Yposition Zposition Zrotation Xrotation Yrotation
        JOINT LeftFoot
        {
          OFFSET 0 -38.2023 0
          CHANNELS 6 Xposition Yposition Zposition Zrotation Xrotation Yrotation
          JOINT LeftToeBase
          {
            OFFSET 0 -6.0207 13.8939
            CHANNELS 6 Xposition Yposition Zposition Zrotation Xrotation Yrotation
            End Site
            {
              OFFSET 0 0 3.70504
            }
          }
        }
      }
    }
    JOINT RightUpLeg
    {
      OFFSET -9.26261 0 0
      CHANNELS 6 Xposition Yposition Zposition Zrotation Xrotation Yrotation
      JOINT RightLeg
      {
        OFFSET 0 -35.4897 0
        CHANNELS 6 Xposition Yposition Zposition Zrotation Xrotation Yrotation
        JOINT RightFoot
        {
          OFFSET 0 -38.2023 0
          CHANNELS 6 Xposition Yposition Zposition Zrotation Xrotation Yrotation
          JOINT RightToeBase
          {
            OFFSET 0 -6.0207 13.8939
            CHANNELS 6 Xposition Yposition Zposition Zrotation Xrotation Yrotation
            End Site
            {
              OFFSET 0 0 3.70504
            }
          }
        }
      }
    }
  }
}
MOTION
Frames:	9
Frame Time:	0.004
0 0 0 0 0 -0 -23.1732 75.3456 -197.18 -0.809997 0.553527 -5.31382 0 7.59534 0 0.27609 -5.70411 -0.000717939 0 23.5015 -2.84217e-014 2.13863 -1.65341 0.00681223 0 23.405 2.12773 -4.19707 28.8005 -1.20342 0 12.9677 -1.85252 0.264454 -2.32224 -1.73059 3.62206 22.4732 -0.132728 13.3678 2.18323 14.8731 8.17784 2.84217e-014 2.84217e-014 -17.7459 2.68983 -2.8084 30.104 0 2.84217e-014 2.57324 0.50175 0.122232 24.4664 0 -2.84217e-014 -0.248012 0.509186 -2.19468 -3.6336 22.4732 -0.132728 -9.33762 2.47382 19.1482 -8.17784 0 2.84217e-014 16.0319 -2.74675 -6.6916 -30.104 0 2.84217e-014 -2.83199 0.136787 -0.184237 -24.4664 0 0 2.17567 0.160741 1.47988 9.26261 0 0 3.141 11.6543 0.944019 0 -35.4897 -2.84217e-014 -0.877191 -6.71362 -3.24111 0 -38.2023 -2.84217e-014 1.84655 -7.19647 20.5059 -7.10543e-015 -6.0207 13.8939 -5.96354e-016 3.97569e-016 -3.18055e-015 -9.26261 0 0 -2.43464 0.43211 0.510116 7.10543e-015 -35.4897 2.84217e-014 -1.45516 4.19742 -2.05983 -7.10543e-015 -38.2023 0 3.15804 -7.59191 3.89348 7.10543e-015 -6.0207 13.8939 4.47266e-016 0 -3.97569e-016 
0 0 0 0 0 -0 -23.1732 75.3456 -197.18 -0.808345 0.572447 -5.30312 0 7.59534 0 0.27609 -5.72369 -0.000717964 0 23.5015 2.84217e-014 2.14865 -1.64723 0.00681221 0 23.405 2.12773 -4.22194 28.788 -1.20327 0 12.9677 -1.85252 0.290909 -2.32224 -1.73059 3.62206 22.4732 -0.132728 13.3678 2.18323 14.8731 8.17784 -2.84217e-014 0 -17.7447 2.71564 -2.80846 30.104 0 0 2.56996 0.50175 0.122232 24.4664 2.84217e-014 0 -0.281121 0.504501 -2.22975 -3.6336 22.4732 -0.132728 -9.33325 2.46124 19.148 -8.17784 0 0 16.0313 -2.75185 -6.69163 -30.104 0 -2.84217e-014 -2.83129 0.136787 -0.184237 -24.4664 0 0 2.21681 0.160739 1.50068 9.26261 -1.42109e-014 0 3.14141 11.63 0.943936 0 -35.4897 0 -0.872271 -6.71371 -3.19912 -7.10543e-015 -38.2023 0 1.84397 -7.1985 20.4621 0 -6.0207 13.8939 -1.98785e-016 0 -1.59028e-015 -9.26261 -1.42109e-014 -2.84217e-014 -2.43425 0.407227 0.485689 7.10543e-015 -35.4897 0 -1.45787 4.2145 -2.01456 -7.10543e-015 -38.2023 0 3.11058 -7.61947 3.87415 -7.10543e-015 -6.0207 13.8939 -4.96962e-017 7.95139e-016 7.95139e-016 
0 0 0 0 0 -0 -23.1732 75.3456 -197.18 -0.80971 0.558164 -5.2991 7.10543e-015 7.59534 0 0.27609 -5.71837 -0.000717957 0 23.5015 2.84217e-014 2.1449 -1.6377 0.00681217 0 23.405 2.12773 -4.21638 28.7872 -1.20326 -7.10543e-015 12.9677 -1.85252 0.274577 -2.32224 -1.73059 3.62206 22.4732 -0.132728 13.3678 2.18323 14.8726 8.17784 0 0 -17.7445 2.71807 -2.80847 30.104 2.84217e-014 0 2.55669 0.51545 0.122232 24.4664 0 0 -0.283447 0.518396 -2.234 -3.6336 22.4732 -0.132728 -9.334 2.46342 19.1481 -8.17784 0 0 16.0296 -2.76676 -6.69171 -30.104 0 0 -2.81587 0.136787 -0.184237 -24.4664 0 -2.84217e-014 2.21016 0.16074 1.48877 9.26261 0 -2.84217e-014 3.14103 11.653 0.944014 -3.55271e-015 -35.4897 -2.84217e-014 -0.875584 -6.72564 -3.22168 0 -38.2023 2.84217e-014 1.81886 -7.19637 20.4843 -7.10543e-015 -6.0207 13.8939 -9.93923e-017 -3.97569e-016 3.18055e-015 -9.26261 0 0 -2.43434 0.431018 0.471475 0 -35.4897 2.84217e-014 -1.45766 4.1982 -2.02525 0 -38.2023 0 3.11009 -7.60595 3.89333 0 -6.0207 13.8939 -2.98177e-016 -3.97569e-016 3.97569e-016 
0 0 0 0 0 -0 -23.1732 75.3456 -197.18 -0.810321 0.558825 -5.30324 0 7.59534 2.84217e-014 0.27609 -5.72561 -0.000717966 0 23.5015 2.84217e-014 2.14475 -1.63022 0.00681215 0 23.405 2.12773 -4.2339 28.7819 -1.2032 0 12.9677 -1.85252 0.299097 -2.32105 -1.73059 3.62206 22.4732 -0.132728 13.3682 2.18333 14.8629 8.17784 0 0 -17.7443 2.72348 -2.80848 30.104 0 0 2.54628 0.522165 0.122232 24.4664 2.84217e-014 0 -0.27207 0.524759 -2.23299 -3.6336 22.4732 -0.132728 -9.33575 2.46846 19.1481 -8.17784 2.84217e-014 2.84217e-014 16.0303 -2.76047 -6.69178 -30.104 -2.84217e-014 0 -2.82496 0.132187 -0.184237 -24.4664 0 -2.84217e-014 2.2272 0.15699 1.5023 9.26261 0 0 3.14104 11.6525 0.944013 0 -35.4897 0 -0.87959 -6.71194 -3.26238 0 -38.2023 0 1.83516 -7.21333 20.5047 0 -6.0207 13.8939 -9.93923e-017 0 1.59028e-015 -9.26261 0 2.84217e-014 -2.43433 0.428116 0.473424 0 -35.4897 0 -1.45813 4.21157 -1.96655 0 -38.2023 -2.84217e-014 3.08738 -7.62068 3.81818 0 -6.0207 13.8939 1.73937e-016 3.97569e-016 -0 
0 0 0 0 0 -0 -23.1732 75.3456 -197.18 -0.809412 0.578092 -5.29181 0 7.59534 2.84217e-014 0.27609 -5.73236 -0.000717975 0 23.5015 2.84217e-014 2.14498 -1.64222 0.00681219 0 23.405 2.12773 -4.21886 28.7771 -1.20314 0 12.9677 -1.85252 0.27126 -2.30879 -1.73058 3.62206 22.4732 -0.132728 13.3682 2.18334 14.8615 8.17784 2.84217e-014 0 -17.7433 2.74165 -2.80947 30.104 0 0 2.54436 0.533558 0.12763 24.4664 -2.84217e-014 2.84217e-014 -0.167908 0.53405 -2.21545 -3.6336 22.4732 -0.132728 -9.33701 2.47206 19.1482 -8.17784 0 0 16.0275 -2.78393 -6.6939 -30.104 -2.84217e-014 -2.84217e-014 -2.8249 0.149242 -0.184237 -24.4664 0 0 2.23677 0.174251 1.5074 9.26261 0 0 3.14151 11.6243 0.943917 3.55271e-015 -35.4897 2.84217e-014 -0.868771 -6.71323 -3.1695 0 -38.2023 0 1.84268 -7.21033 20.4401 0 -6.0207 13.8939 1.98785e-016 0 -3.18055e-015 -9.26261 1.42109e-014 2.84217e-014 -2.43436 0.407567 0.50086 0 -35.4897 0 -1.44641 4.20729 -2.0408 -7.10543e-015 -38.2023 -2.84217e-014 3.0901 -7.62839 3.86521 7.10543e-015 -6.0207 13.8939 -1.98785e-016 -3.97569e-016 3.97569e-016 
0 0 0 0 0 -0 -23.1732 75.3456 -197.18 -0.810812 0.571885 -5.28959 0 7.59534 2.84217e-014 0.27609 -5.7335 -0.000717976 7.10543e-015 23.5015 -2.84217e-014 2.14575 -1.62752 0.00681214 0 23.405 2.12773 -4.22901 28.7785 -1.20316 0 12.9677 -1.85252 0.289606 -2.32322 -1.7306 3.62206 22.4732 -0.132728 13.3683 2.18337 14.8586 8.17784 0 0 -17.7412 2.71989 -2.81718 30.104 -2.84217e-014 0 2.51818 0.548703 0.13141 24.4664 0 -2.84217e-014 -0.205564 0.54978 -2.23531 -3.6336 22.4732 -0.132728 -9.3346 2.46575 19.1436 -8.17784 0 2.84217e-014 16.03 -2.76121 -6.69625 -30.104 0 0 -2.82303 0.140045 -0.193869 -24.4664 0 2.84217e-014 2.2417 0.164892 1.52173 9.26261 -1.42109e-014 0 3.14137 11.6278 0.944325 -3.55271e-015 -35.4897 -2.84217e-014 -0.875076 -6.69214 -3.23336 7.10543e-015 -38.2023 2.84217e-014 1.80909 -7.24095 20.4919 -7.10543e-015 -6.0207 13.8939 5.96354e-016 3.97569e-016 -0 -9.26261 1.42109e-014 0 -2.43434 0.416431 0.488054 -1.42109e-014 -35.4897 0 -1.44043 4.21678 -1.96486 0 -38.2023 0 3.07675 -7.63221 3.8004 -7.10543e-015 -6.0207 13.8939 9.93923e-017 -3.97569e-016 1.19271e-015 
0 0 0 0 0 -0 -23.1729 75.3456 -197.18 -0.811728 0.570857 -5.29052 0 7.59534 0 0.27609 -5.73351 -0.000717976 0 23.5015 0 2.14725 -1.62549 0.00681213 0 23.405 2.12773 -4.21384 28.7716 -1.20308 0 12.9677 -1.85252 0.260626 -2.32214 -1.73153 3.62206 22.4732 -0.132728 13.3684 2.18338 14.8583 8.17784 0 0 -17.7421 2.74081 -2.81895 30.104 2.84217e-014 0 2.51993 0.562212 0.137801 24.4664 2.84217e-014 0 -0.206576 0.563303 -2.23224 -3.6336 22.4732 -0.132728 -9.33653 2.47183 19.1399 -8.17784 0 0 16.029 -2.76869 -6.69826 -30.104 0 0 -2.82052 0.141114 -0.193756 -24.4664 0 -2.84217e-014 2.24876 0.166813 1.52748 9.26261 0 -2.84217e-014 3.13776 11.6375 0.923828 0 -35.4897 0 -0.8734 -6.71637 -3.20749 0 -38.2023 0 1.8243 -7.21785 20.4824 7.10543e-015 -6.0207 13.8939 -4.96962e-016 7.95139e-016 -0 -9.26261 1.42109e-014 -2.84217e-014 -2.43016 0.418811 0.500853 0 -35.4897 2.84217e-014 -1.44272 4.21281 -2.0059 1.42109e-014 -38.2023 0 3.09194 -7.6343 3.81423 0 -6.0207 13.8939 6.4605e-016 -3.97569e-016 -3.97569e-016 
0 0 0 0 0 -0 -23.1712 75.3456 -197.178 -0.812503 0.5711 -5.29556 -7.10543e-015 7.59534 -2.84217e-014 0.27609 -5.73285 -0.000717975 0 23.5015 0 2.15453 -1.61665 0.0068121 0 23.405 2.12773 -4.22605 28.7689 -1.20305 7.10543e-015 12.9677 -1.85252 0.269837 -2.33434 -1.7325 3.62206 22.4732 -0.132728 13.3684 2.18339 14.8567 8.17784 0 0 -17.7435 2.76753 -2.81953 30.104 -2.84217e-014 0 2.51913 0.576825 0.146257 24.4664 -2.84217e-014 -2.84217e-014 -0.21745 0.577925 -2.22859 -3.6336 22.4732 -0.132728 -9.33988 2.48142 19.1404 -8.17784 2.84217e-014 2.84217e-014 16.0294 -2.76556 -6.69871 -30.104 -2.84217e-014 2.84217e-014 -2.81682 0.135229 -0.193084 -24.4664 0 0 2.26213 0.160886 1.54355 9.26261 0 0 3.13139 11.6454 0.931127 0 -35.4897 0 -0.872419 -6.71165 -3.20136 0 -38.2023 0 1.82338 -7.21654 20.464 7.10543e-015 -6.0207 13.8939 -5.96354e-016 3.97569e-016 -0 -9.26261 -1.42109e-014 -2.84217e-014 -2.43899 0.422148 0.519192 1.42109e-014 -35.4897 2.84217e-014 -1.43664 4.22768 -1.94744 0 -38.2023 0 3.10123 -7.63522 3.73667 0 -6.0207 13.8939 3.47873e-016 7.95139e-016 -0 
0 0 0 0 0 -0 -23.1693 75.3456 -197.176 -0.813521 0.571543 -5.27531 0 7.59534 0 0.27609 -5.73204 -0.000717974 0 23.5015 0 2.15757 -1.62913 0.00681215 0 23.405 2.12773 -4.21459 28.762 -1.20297 0 12.9677 -1.85252 0.252377 -2.3263 -1.73344 3.62206 22.4732 -0.132728 13.3685 2.18341 14.8551 8.17784 0 0 -17.7455 2.78622 -2.81891 30.104 0 0 2.51788 0.567333 0.152914 24.4664 2.84217e-014 2.84217e-014 -0.160002 0.567122 -2.20419 -3.6336 22.4732 -0.132728 -9.34199 2.48995 19.1273 -8.17784 2.84217e-014 2.84217e-014 16.0307 -2.7582 -6.68867 -30.104 0 0 -2.78528 0.069835 -0.173445 -24.4664 0 2.84217e-014 2.02799 0.091501 1.46273 9.26261 1.42109e-014 0 3.14961 11.6195 0.935185 0 -35.4897 0 -0.877793 -6.69676 -3.25437 0 -38.2023 -2.84217e-014 1.85204 -7.23013 20.4996 0 -6.0207 13.8939 -5.96354e-016 1.19271e-015 -3.18055e-015 -9.26261 0 0 -2.41559 0.408133 0.470864 1.42109e-014 -35.4897 2.84217e-014 -1.46087 4.22259 -2.02033 7.10543e-015 -38.2023 0 3.13469 -7.62433 3.85362 -7.10543e-015 -6.0207 13.8939 7.45443e-017 0 -3.97569e-016 
